<svg width="174" height="174" viewBox="0 0 174 174" fill="none" xmlns="http://www.w3.org/2000/svg">
<g clip-path="url(#clip0_2_2)">
<rect width="174" height="174" rx="20" fill="#08070B"/>
<path d="M113.8 41C116.3 44.7 119.9 51 121.8 54.7L113.8 58.1C111.7 54 108.6 48.1 105.9 44.2L113.8 41ZM125.7 36.5C128.3 40.2 132 46.6 133.7 50.1L125.8 53.5C123.7 49.3 120.5 43.5 117.8 39.7L125.7 36.5ZM88.2 41.9C87.9 44.2 87.6 48.4 87.5 50.8C86.4 90.6 77 110.8 54.9 126.6L43.2 117.2C47.4 114.9 52.4 111.5 56.4 107.4C69.5 94.4 74.1 77.4 74.2 51.1C74.2 48.8 73.8 44.3 73.4 41.9H88.2ZM122.1 63.3C121.8 64.9 121.5 67.5 121.5 68.6C121.1 79.4 119.8 107.3 115.5 117.5C113.4 122.6 109.5 125.2 102.7 125.2C96.9 125.2 91 124.8 86.1 124.4L84.5 111C89.5 111.9 94.6 112.4 98.6 112.4C101.8 112.4 103.2 111.3 104.2 108.9C107.1 102.6 108.5 82.6 108.5 71.8H59.7C56.3 71.8 50.7 71.8 46.5 72.2V59.1C50.7 59.5 55.8 59.8 59.6 59.8H105.9C108.5 59.8 111.1 59.5 113.5 59.1L122.1 63.3Z" fill="white"/>
</g>
<defs>
<clipPath id="clip0_2_2">
<rect width="174" height="174" rx="20" fill="white"/>
</clipPath>
</defs>
</svg>
